<svg id="Layer_1" data-name="Layer 1" xmlns="http://www.w3.org/2000/svg" viewBox="0 0 2829.44 1132.83"><defs><style>.cls-1{stroke:#1d1d1b;stroke-miterlimit:10;stroke-width:10.93px;}.cls-2{fill:#c1272d;}.cls-3{fill:#262424;}</style></defs><path class="cls-1" d="M1290.31,1944.36q0,13.46-9.89,20.33c-6.6,4.58-16.49,6.23-29.86,5.13l-21.42-1.65c-42.31-3.11-73.63-15.93-93.59-38.09-20.15-22.16-30.22-55.86-30.22-100.73V1630.09h-53.11c-9,0-15.93-2.2-21.06-6.78-5-4.58-7.51-10.44-7.51-18,0-7.87,2.56-14.28,7.51-19s12.09-7.15,21.06-7.15h53.11v-89.74c0-10.07,2.93-17.94,8.79-23.44s13.74-8.42,23.81-8.42c9.52,0,17.22,2.74,23.08,8.42,5.86,5.5,8.79,13.37,8.79,23.44v89.74h88.09q12.63,0,20.33,7.15c4.94,4.76,7.51,11.17,7.51,19,0,7.51-2.57,13.37-7.51,18s-11.72,6.78-20.33,6.78H1169.8v202.37c0,29.12,6,50.18,18,63.18s29.85,20.33,53.66,21.8l21.42,1.65C1281,1920.55,1290.31,1929.16,1290.31,1944.36Z" transform="translate(-47.59 -1003.23)"/><path class="cls-1" d="M1657,1722.21v215.92c0,9.53-2.75,17.22-8.43,23.08s-13.18,8.79-22.71,8.79-17.21-2.93-23.07-8.79-8.79-13.55-8.79-23.08V1900c-10.08,22.71-25.46,40.29-46,52.75q-31,18.68-71.43,18.68c-24.91,0-47.8-5.13-68.68-15-20.88-10.07-37.36-24-49.63-42.12a103.39,103.39,0,0,1-18.31-59.53c0-29.12,7.32-51.64,22.16-67.94,14.83-16.12,39.19-27.84,73.07-35s80.95-10.81,141.39-10.81H1594v-26.19c0-31.68-6.41-54.94-19.42-69.77s-34.06-22.16-63.18-22.16c-36.08,0-72.53,9.88-109.52,29.3-14.29,9-24.36,13.55-30.22,13.55a20.36,20.36,0,0,1-15.93-7.14c-4.21-4.76-6.41-10.81-6.41-18.32a29.56,29.56,0,0,1,6.77-19.41c4.58-5.49,11.72-11.17,21.8-17,18.5-10.62,39.56-18.87,63.18-25.09a281.73,281.73,0,0,1,70.33-9.16C1608.61,1569.83,1657,1620.56,1657,1722.21Zm-93.22,166.29q30.49-32.14,30.58-83v-23.08H1580q-69.78,0-106.41,6c-24.36,4-41.76,10.62-52,19.78-10.26,9.34-15.57,22.89-15.57,40.84,0,20.69,7.51,37.72,22.71,51.28,15,13.55,34.07,20.33,56.78,20.33C1517.4,1920.55,1543.41,1909.93,1563.74,1888.5Z" transform="translate(-47.59 -1003.23)"/><path class="cls-1" d="M2096,1940.51a28.81,28.81,0,0,1-8.42,20.7,27,27,0,0,1-20.33,8.79c-7,0-14.1-3.11-21.43-9.52l-207-178.75v156.4c0,10.08-3.11,17.95-9.16,23.45S1816.11,1970,1807,1970c-9.52,0-17.4-2.75-23.44-8.42-6-5.5-9.16-13.37-9.16-23.45V1433.94c0-10.07,3.12-18,9.16-23.44s13.92-8.43,23.44-8.43c9,0,16.48,2.75,22.71,8.43,6,5.49,9.16,13.37,9.16,23.44v322.33l189.73-173.8c6.41-6.41,13.56-9.52,21.43-9.52a28.42,28.42,0,0,1,20.7,8.79,28.11,28.11,0,0,1,8.79,20.69c0,9-3.66,17-11.17,23.81L1911.89,1766l171.42,149.26C2091.74,1922.93,2096,1931.54,2096,1940.51Z" transform="translate(-47.59 -1003.23)"/><path class="cls-1" d="M2492.82,1940.51a28.81,28.81,0,0,1-8.42,20.7,27,27,0,0,1-20.33,8.79c-7,0-14.1-3.11-21.43-9.52l-206.95-178.75v156.4c0,10.08-3.11,17.95-9.16,23.45S2213,1970,2203.82,1970c-9.52,0-17.4-2.75-23.44-8.42-6-5.5-9.16-13.37-9.16-23.45V1433.94c0-10.07,3.12-18,9.16-23.44s13.92-8.43,23.44-8.43c9,0,16.49,2.75,22.71,8.43,6,5.49,9.16,13.37,9.16,23.44v322.33l189.74-173.8c6.41-6.41,13.55-9.52,21.42-9.52a28.42,28.42,0,0,1,20.7,8.79,28.11,28.11,0,0,1,8.79,20.69c0,9-3.66,17-11.17,23.81L2308.76,1766l171.42,149.26C2488.61,1922.93,2492.82,1931.54,2492.82,1940.51Z" transform="translate(-47.59 -1003.23)"/><path class="cls-1" d="M2871.56,1722.21v215.92c0,9.53-2.75,17.22-8.42,23.08S2850,1970,2840.43,1970s-17.22-2.93-23.08-8.79-8.79-13.55-8.79-23.08V1900c-10.07,22.71-25.46,40.29-46,52.75q-31,18.68-71.42,18.68c-24.91,0-47.81-5.13-68.68-15-20.88-10.07-37.36-24-49.64-42.12a103.39,103.39,0,0,1-18.31-59.53c0-29.12,7.33-51.64,22.16-67.94,14.84-16.12,39.19-27.84,73.07-35s80.95-10.81,141.39-10.81h17.4v-26.19c0-31.68-6.41-54.94-19.41-69.77S2755.08,1623,2726,1623c-36.08,0-72.52,9.88-109.52,29.3-14.28,9-24.36,13.55-30.22,13.55a20.36,20.36,0,0,1-15.93-7.14c-4.21-4.76-6.41-10.81-6.41-18.32a29.52,29.52,0,0,1,6.78-19.41c4.58-5.49,11.72-11.17,21.79-17,18.5-10.62,39.56-18.87,63.18-25.09a281.73,281.73,0,0,1,70.33-9.16C2823.21,1569.83,2871.56,1620.56,2871.56,1722.21Zm-93.22,166.29c20.33-21.43,30.59-49.08,30.59-83v-23.08h-14.29q-69.78,0-106.41,6c-24.35,4-41.75,10.62-52,19.78-10.25,9.34-15.56,22.89-15.56,40.84,0,20.69,7.5,37.72,22.7,51.28,15,13.55,34.07,20.33,56.78,20.33C2731.82,1920.55,2757.83,1909.93,2778.34,1888.5Z" transform="translate(-47.59 -1003.23)"/><circle class="cls-2" cx="139.04" cy="102.12" r="102.12"/><path class="cls-2" d="M201,1207.48" transform="translate(-47.59 -1003.23)"/><path class="cls-3" d="M244.46,1122.23c-11.07-14.24-27.6-30.06-40.25-28.47-28.48,3.16-32.35,44.29-24.44,94.74,8.62,41.13,19.69,81.38,45,144.48l.71,1.58c24.43,57,62.39,141.32,81.38,188.78,13.36,35.51,36.38,112.15,30.05,161.19,24.44,7,19-64.69,11.08-110.56-3.87-21.27-15.82-67.15-20.57-79.8-12.65-33.23-37.08-93.16-47.46-116.89-26.89-64-87.71-209.35-83-255,2.29-21.27,16.52-11.07,24.43,3.17,31.64,41.83,42.71,82.08,94.74,159.6,24.44,38.67,56.95,95.62,85.25,145.36a559.12,559.12,0,0,0,41.13,63.1c8.62,9.49,22.15,31.64,34.81,31.64,14.23,2.29,15.82-14.24,11.07-25.31-3.16-15.82-14.94-32.34-31.64-53.79-60.11-81.38-113.72-180.16-158-244.14" transform="translate(-47.59 -1003.23)"/><path class="cls-3" d="M386.66,1327.53c32.34-10.19,66.26-4.74,94,30.06L491.77,1371l11.07,16.52c16.53,26,26.9,48.16,41.13,69.43,8.62,14.24,18.11,31.64,30.06,44.3,20.57,17.4,31.64,3.16,19.69-26.9-6.33-17.4-27.6-45.87-31.64-52.9C521,1366,493.35,1325.07,455.38,1310c-18.45-10.37-55.36-11.08-71.18,2.46a7.3,7.3,0,0,0-1.76,9A22.65,22.65,0,0,0,386.66,1327.53Z" transform="translate(-47.59 -1003.23)"/><path class="cls-3" d="M920.65,1950.12c8.44-11.25,15.65-23,15.65-37.27-3.17-1.58,0-8.61-15.82-38.67-8.61-17.4-39.55-67.14-56.07-72.59l-3.87,1.58c-7.91,0-18.1,0-29.18,3.17,3.17-51.33,17.4-128,5.45-219.54-5.45-34.81-11.07-60.12-19-77.34-5.45-14.94-11.08-28.48-16.53-36.39-22.85-39.55-54.48-78.92-81.38-103.53-23.73-20.56-43.41-31.64-71.89-30.76-19.69,0-33.22,7.91-34.8,11.78-19-15.82-43.42-30.76-65.56-35.51-11.78,0-28.48-4.74-45.88,7-5.45,3.17-7,8.62,2.28,7.91h7c57.66,5.45,77.34,26.9,116.19,84.55l21.27,35.51c8.61,13.36,19,33.22,34.8,47.45,14.94,15,30.06,4.75,15.82-21.26l-15.82-26-23.73-35.5c-7-9.5-24.43-36.39-40.25-57.66,34.8-6.32,63.1,0,90.87,41.13,19.69,26.9,41.84,63.11,55.37,96.33,39.55,113,39.55,203,40.25,318.32-26.89,6.33-62.39,16.52-86.12,27.6-71,30.76-146.07,79.8-195.11,136.57-31.64-31.64-105.82-64-158-101.07-45.88-33.22-75.05-67.85-104.23-116.18-15.82-29.18-31.64-61.7-51.33-97.21-15.82-29.17-40.25-60.81-62.4-86.12-13.36-11.78-33.92-26-53.78-38,40.25-18.1,87.71,1.58,117.76,24.43,35.51,26.9,64,70.31,91.58,102.65,4.75,5.45,10.2,14.94,15.82,14.94,5.45,0,.7-10.19-.7-11.77-34.81-45.88-63.11-101.07-113-134.29-20.57-13.36-47.46-25.31-72.6-25.31-38.67-.71-86.83,21.26-86.13,38.67l3.17,3.86c19.68,14.24,36.38,26,52.9,43.42,39.55,38.67,69.43,89.29,95.62,146.07,22.86,42.71,46.58,82.08,82.09,116.88,49.74,49,113.72,79.8,154,101.07,23.73,13.36,45,27.6,65.56,49.75l-11.78,22.85c-2.28,23.73,18.11,57.65,35.51,83.66,22.85,34.81,126.91,27.78,85.25-36.38,26.89-26,73.47-58.53,102-76.64,40.25-26,102.65-48.16,150.81-69.43h1.58c8.79,16.35,19.34,23.38,28.3,26A24.77,24.77,0,0,0,920.65,1950.12ZM750,1958.73c-67.15,31.64-166.63,105.11-192.65,161.89-14.94-15.82-36.38-64.69-56.07-82.09,18.11-26,56.07-67.14,93.16-93.16C669.48,1890,735.74,1857,821.17,1826.9l39.55-14.24v-1.58L920,1911.45C888.14,1909.69,825,1927.09,750,1958.73Z" transform="translate(-47.59 -1003.23)"/><path class="cls-3" d="M809.21,1855.2c-27.59,17.4-14.23,54.49,13.36,50.62C852.63,1899.5,846.3,1850.46,809.21,1855.2Z" transform="translate(-47.59 -1003.23)"/></svg>
